<svg width="476" height="371" viewBox="0 0 476 371" fill="none" xmlns="http://www.w3.org/2000/svg">
<mask id="path-1-inside-1_4_6" fill="white">
<path fill-rule="evenodd" clip-rule="evenodd" d="M117.852 87.6046L111.231 90.3812C109.32 91.1826 107.705 92.5578 106.609 94.3167L78.7346 139.075L78.3757 97.9495C78.3275 92.4268 82.7654 87.9108 88.2881 87.8626L117.852 87.6046ZM181.828 60.7758L117.852 87.6046L212.828 86.7757L170.642 104.467L125.288 104.863C119.765 104.911 115.328 109.427 115.376 114.949L115.729 155.45L79.3868 213.805L78.7346 139.075L48.3868 187.805L47.3757 71.9495C47.3275 66.4269 51.7654 61.9109 57.2881 61.8627L181.828 60.7758ZM317.562 42.855L334.963 16.4008C340.389 8.15144 331.846 -2.13504 322.741 1.68346L181.828 60.7758L259.156 60.101C261.986 60.0763 264.3 62.3504 264.325 65.1804L212.828 86.7757L264.509 86.3247L264.608 97.5779L249.828 103.776L170.642 104.467L142.231 116.381C140.32 117.182 138.705 118.558 137.609 120.317L115.729 155.45L116.339 225.354L79.4904 225.675L79.3868 213.805L71.9531 225.741L58.7192 225.856C53.1966 225.905 48.6805 221.467 48.6323 215.944L48.3868 187.805L1.95249 262.364C-3.26855 270.748 5.53146 280.82 14.5399 276.772L50.1334 260.777L32.9525 288.364C27.7315 296.747 36.5315 306.82 45.5399 302.772L81.682 286.53L69.9525 305.364C64.7315 313.747 73.5315 323.82 82.5399 319.772L116.77 304.39L104.953 323.364C99.7315 331.747 108.531 341.82 117.54 337.772L165.266 316.325L140.953 355.364C135.731 363.747 144.531 373.82 153.54 369.772L268.209 318.241L394.712 317.137C400.234 317.089 404.672 312.573 404.624 307.05L403.83 216.025L473.963 109.401C479.389 101.151 470.847 90.8649 461.741 94.6834L413.208 115.036L437.963 77.4007C443.389 69.1513 434.847 58.8649 425.741 62.6834L391.305 77.1242L402.963 59.4007C408.389 51.1513 399.847 40.8649 390.741 44.6834L354.452 59.9014L365.963 42.4007C371.389 34.1513 362.847 23.8649 353.741 27.6834L317.562 42.855ZM289.111 86.11L264.509 86.3247L264.325 65.1804L317.562 42.855L289.111 86.11ZM292.015 86.0847L289.111 86.11L288.028 87.7564L264.608 97.5779L264.661 103.646L249.828 103.776L205.249 122.47L160.288 122.863C154.765 122.911 150.328 127.427 150.376 132.949L150.748 175.631L119.8 225.323L116.339 225.354L116.387 230.805L116.215 231.081L79.6808 247.499L79.4904 225.675L71.9531 225.741L50.1334 260.777L79.6808 247.499C79.7022 249.953 81.7097 251.926 84.1646 251.905L103.35 251.737L81.682 286.53L120.898 268.907L138.966 268.749L116.77 304.39L155.668 286.909L183.738 286.664L165.266 316.325L187.609 306.284L187.632 308.944C187.681 314.467 192.197 318.905 197.719 318.856L268.209 318.241L341.541 285.287L358.712 285.137C364.234 285.089 368.672 280.573 368.624 275.05L368.577 269.621L403.83 216.025L403.367 163.056C403.319 157.533 398.803 153.095 393.281 153.143L388.113 153.189L413.208 115.036L367.395 134.248L367.323 125.956C367.299 123.25 365.086 121.075 362.38 121.099L391.305 77.1242L329.407 103.081L326.03 103.111L354.452 59.9014L292.015 86.0847ZM295.431 103.378L295.309 89.3218C295.293 87.5182 293.818 86.0689 292.015 86.0847L288.028 87.7564L277.651 103.533L264.661 103.646L264.82 121.95L205.249 122.47L179.231 133.381C177.32 134.182 175.705 135.558 174.609 137.317L150.748 175.631L151.095 215.406L129.209 225.241L119.8 225.323L116.387 230.805L116.389 231.003L116.215 231.081L103.35 251.737L116.568 251.622L116.683 264.765C116.703 267.073 118.59 268.927 120.898 268.907L145.851 257.693L138.966 268.749L151.56 268.64L151.685 282.995C151.704 285.176 153.487 286.928 155.668 286.909L187.316 272.687L187.387 280.805L183.738 286.664L187.438 286.632L187.609 306.284L232.209 286.241L341.541 285.287L362.638 275.806C364.372 275.027 365.848 273.769 366.893 272.18L368.577 269.621L367.83 184.025L388.113 153.189L367.562 153.368L367.395 134.248L348.527 142.16L362.38 121.099L332.44 121.36L332.305 105.929C332.291 104.342 330.994 103.067 329.407 103.081L324.771 105.026L326.03 103.111L295.431 103.378ZM295.553 117.278L295.431 103.378L277.651 103.533L265.541 121.944L264.82 121.95L264.83 123.025L258.347 132.881L213.608 151.642C212.102 152.274 210.83 153.357 209.967 154.743L196.288 154.863C190.765 154.911 186.328 159.427 186.376 164.949L186.614 192.241L180.384 202.244L151.095 215.406L151.179 225.05L129.209 225.241L116.389 231.003L116.568 251.622L149.813 251.332L145.851 257.693L151.442 255.181L151.56 268.64L187.278 268.328L187.316 272.687L194.435 269.488L187.387 280.805L187.438 286.632L232.209 286.241L273.75 267.573L323.712 267.137C329.234 267.089 333.672 262.573 333.624 257.05L333.443 236.304L367.83 184.025L367.562 153.368L341.003 153.6L348.527 142.16L332.679 148.806L332.44 121.36L313.92 121.522L324.771 105.026L295.553 117.278ZM295.591 121.682L313.92 121.522L295.83 149.025L295.591 121.682ZM295.873 153.994L295.83 149.025L292.543 154.023L265.102 154.262L264.892 130.136L284.828 121.776L295.591 121.682L295.553 117.278L284.828 121.776L265.541 121.944L264.83 123.025L264.892 130.136L258.347 132.881L244.163 154.445L209.967 154.743L186.614 192.241L186.677 199.416L180.384 202.244L166.263 224.918L151.179 225.05L151.387 248.805L149.813 251.332L151.409 251.318L151.442 255.181L160.209 251.241L187.127 251.006L187.278 268.328L195.2 268.259L194.435 269.488L197.209 268.241L273.75 267.573L326.638 243.806C328.372 243.027 329.848 241.769 330.893 240.18L333.443 236.304L332.83 166.025L341.003 153.6L332.722 153.672L332.679 148.806L320.828 153.776L295.873 153.994ZM295.962 164.203L295.873 153.994L292.543 154.023L281.993 170.061L265.301 177.061L265.102 154.262L244.163 154.445L227.893 179.181C226.848 180.769 225.372 182.027 223.637 182.806L186.677 199.416L186.897 224.738L166.263 224.918L151.387 248.805L151.409 251.318L160.209 251.241L187.024 239.191L187.127 251.006L206.048 250.841L195.2 268.259L197.209 268.241L236.52 250.575L286.712 250.137C292.234 250.089 296.672 245.573 296.624 240.05L296.461 221.318L332.83 166.025L332.722 153.672L320.828 153.776L295.962 164.203ZM295.962 164.203L296.461 221.318L295.893 222.18C294.848 223.769 293.372 225.027 291.638 225.806L236.52 250.575L206.048 250.841L222.498 224.427L255.712 224.137C261.234 224.089 265.672 219.573 265.624 214.05L265.459 195.198L281.993 170.061L295.962 164.203ZM223.516 222.792L222.498 224.427L219.825 224.45L223.516 222.792ZM223.516 222.792L254.638 208.806C256.372 208.027 257.848 206.769 258.893 205.18L265.459 195.198L265.301 177.061L250.231 183.381C248.32 184.182 246.705 185.558 245.609 187.317L223.516 222.792ZM219.825 224.45L187.024 239.191L186.897 224.738L219.825 224.45Z"/>
</mask>
<path fill-rule="evenodd" clip-rule="evenodd" d="M117.852 87.6046L111.231 90.3812C109.32 91.1826 107.705 92.5578 106.609 94.3167L78.7346 139.075L78.3757 97.9495C78.3275 92.4268 82.7654 87.9108 88.2881 87.8626L117.852 87.6046ZM181.828 60.7758L117.852 87.6046L212.828 86.7757L170.642 104.467L125.288 104.863C119.765 104.911 115.328 109.427 115.376 114.949L115.729 155.45L79.3868 213.805L78.7346 139.075L48.3868 187.805L47.3757 71.9495C47.3275 66.4269 51.7654 61.9109 57.2881 61.8627L181.828 60.7758ZM317.562 42.855L334.963 16.4008C340.389 8.15144 331.846 -2.13504 322.741 1.68346L181.828 60.7758L259.156 60.101C261.986 60.0763 264.3 62.3504 264.325 65.1804L212.828 86.7757L264.509 86.3247L264.608 97.5779L249.828 103.776L170.642 104.467L142.231 116.381C140.32 117.182 138.705 118.558 137.609 120.317L115.729 155.45L116.339 225.354L79.4904 225.675L79.3868 213.805L71.9531 225.741L58.7192 225.856C53.1966 225.905 48.6805 221.467 48.6323 215.944L48.3868 187.805L1.95249 262.364C-3.26855 270.748 5.53146 280.82 14.5399 276.772L50.1334 260.777L32.9525 288.364C27.7315 296.747 36.5315 306.82 45.5399 302.772L81.682 286.53L69.9525 305.364C64.7315 313.747 73.5315 323.82 82.5399 319.772L116.77 304.39L104.953 323.364C99.7315 331.747 108.531 341.82 117.54 337.772L165.266 316.325L140.953 355.364C135.731 363.747 144.531 373.82 153.54 369.772L268.209 318.241L394.712 317.137C400.234 317.089 404.672 312.573 404.624 307.05L403.83 216.025L473.963 109.401C479.389 101.151 470.847 90.8649 461.741 94.6834L413.208 115.036L437.963 77.4007C443.389 69.1513 434.847 58.8649 425.741 62.6834L391.305 77.1242L402.963 59.4007C408.389 51.1513 399.847 40.8649 390.741 44.6834L354.452 59.9014L365.963 42.4007C371.389 34.1513 362.847 23.8649 353.741 27.6834L317.562 42.855ZM289.111 86.11L264.509 86.3247L264.325 65.1804L317.562 42.855L289.111 86.11ZM292.015 86.0847L289.111 86.11L288.028 87.7564L264.608 97.5779L264.661 103.646L249.828 103.776L205.249 122.47L160.288 122.863C154.765 122.911 150.328 127.427 150.376 132.949L150.748 175.631L119.8 225.323L116.339 225.354L116.387 230.805L116.215 231.081L79.6808 247.499L79.4904 225.675L71.9531 225.741L50.1334 260.777L79.6808 247.499C79.7022 249.953 81.7097 251.926 84.1646 251.905L103.35 251.737L81.682 286.53L120.898 268.907L138.966 268.749L116.77 304.39L155.668 286.909L183.738 286.664L165.266 316.325L187.609 306.284L187.632 308.944C187.681 314.467 192.197 318.905 197.719 318.856L268.209 318.241L341.541 285.287L358.712 285.137C364.234 285.089 368.672 280.573 368.624 275.05L368.577 269.621L403.83 216.025L403.367 163.056C403.319 157.533 398.803 153.095 393.281 153.143L388.113 153.189L413.208 115.036L367.395 134.248L367.323 125.956C367.299 123.25 365.086 121.075 362.38 121.099L391.305 77.1242L329.407 103.081L326.03 103.111L354.452 59.9014L292.015 86.0847ZM295.431 103.378L295.309 89.3218C295.293 87.5182 293.818 86.0689 292.015 86.0847L288.028 87.7564L277.651 103.533L264.661 103.646L264.82 121.95L205.249 122.47L179.231 133.381C177.32 134.182 175.705 135.558 174.609 137.317L150.748 175.631L151.095 215.406L129.209 225.241L119.8 225.323L116.387 230.805L116.389 231.003L116.215 231.081L103.35 251.737L116.568 251.622L116.683 264.765C116.703 267.073 118.59 268.927 120.898 268.907L145.851 257.693L138.966 268.749L151.56 268.64L151.685 282.995C151.704 285.176 153.487 286.928 155.668 286.909L187.316 272.687L187.387 280.805L183.738 286.664L187.438 286.632L187.609 306.284L232.209 286.241L341.541 285.287L362.638 275.806C364.372 275.027 365.848 273.769 366.893 272.18L368.577 269.621L367.83 184.025L388.113 153.189L367.562 153.368L367.395 134.248L348.527 142.16L362.38 121.099L332.44 121.36L332.305 105.929C332.291 104.342 330.994 103.067 329.407 103.081L324.771 105.026L326.03 103.111L295.431 103.378ZM295.553 117.278L295.431 103.378L277.651 103.533L265.541 121.944L264.82 121.95L264.83 123.025L258.347 132.881L213.608 151.642C212.102 152.274 210.83 153.357 209.967 154.743L196.288 154.863C190.765 154.911 186.328 159.427 186.376 164.949L186.614 192.241L180.384 202.244L151.095 215.406L151.179 225.05L129.209 225.241L116.389 231.003L116.568 251.622L149.813 251.332L145.851 257.693L151.442 255.181L151.56 268.64L187.278 268.328L187.316 272.687L194.435 269.488L187.387 280.805L187.438 286.632L232.209 286.241L273.75 267.573L323.712 267.137C329.234 267.089 333.672 262.573 333.624 257.05L333.443 236.304L367.83 184.025L367.562 153.368L341.003 153.6L348.527 142.16L332.679 148.806L332.44 121.36L313.92 121.522L324.771 105.026L295.553 117.278ZM295.591 121.682L313.92 121.522L295.83 149.025L295.591 121.682ZM295.873 153.994L295.83 149.025L292.543 154.023L265.102 154.262L264.892 130.136L284.828 121.776L295.591 121.682L295.553 117.278L284.828 121.776L265.541 121.944L264.83 123.025L264.892 130.136L258.347 132.881L244.163 154.445L209.967 154.743L186.614 192.241L186.677 199.416L180.384 202.244L166.263 224.918L151.179 225.05L151.387 248.805L149.813 251.332L151.409 251.318L151.442 255.181L160.209 251.241L187.127 251.006L187.278 268.328L195.2 268.259L194.435 269.488L197.209 268.241L273.75 267.573L326.638 243.806C328.372 243.027 329.848 241.769 330.893 240.18L333.443 236.304L332.83 166.025L341.003 153.6L332.722 153.672L332.679 148.806L320.828 153.776L295.873 153.994ZM295.962 164.203L295.873 153.994L292.543 154.023L281.993 170.061L265.301 177.061L265.102 154.262L244.163 154.445L227.893 179.181C226.848 180.769 225.372 182.027 223.637 182.806L186.677 199.416L186.897 224.738L166.263 224.918L151.387 248.805L151.409 251.318L160.209 251.241L187.024 239.191L187.127 251.006L206.048 250.841L195.2 268.259L197.209 268.241L236.52 250.575L286.712 250.137C292.234 250.089 296.672 245.573 296.624 240.05L296.461 221.318L332.83 166.025L332.722 153.672L320.828 153.776L295.962 164.203ZM295.962 164.203L296.461 221.318L295.893 222.18C294.848 223.769 293.372 225.027 291.638 225.806L236.52 250.575L206.048 250.841L222.498 224.427L255.712 224.137C261.234 224.089 265.672 219.573 265.624 214.05L265.459 195.198L281.993 170.061L295.962 164.203ZM223.516 222.792L222.498 224.427L219.825 224.45L223.516 222.792ZM223.516 222.792L254.638 208.806C256.372 208.027 257.848 206.769 258.893 205.18L265.459 195.198L265.301 177.061L250.231 183.381C248.32 184.182 246.705 185.558 245.609 187.317L223.516 222.792ZM219.825 224.45L187.024 239.191L186.897 224.738L219.825 224.45Z" fill="#B42020"/>
<path d="M155.668 286.909L154.438 284.173L155.668 286.909ZM245.609 187.317L248.156 188.903L245.609 187.317ZM295.893 222.18L293.387 220.532L295.893 222.18ZM291.638 225.806L290.408 223.07L291.638 225.806ZM227.893 179.181L230.4 180.829L227.893 179.181ZM223.637 182.806L224.867 185.543L223.637 182.806ZM186.376 164.949L189.376 164.923L186.376 164.949ZM213.608 151.642L212.447 148.876L213.608 151.642ZM174.609 137.317L177.156 138.903L174.609 137.317ZM255.712 224.137L255.686 221.137L255.712 224.137ZM265.624 214.05L262.624 214.077L265.624 214.05ZM115.376 114.949L112.376 114.976L115.376 114.949ZM84.1646 251.905L84.1385 248.905L84.1646 251.905ZM160.288 122.863L160.314 125.862L160.288 122.863ZM402.963 59.4007L405.469 61.0493L402.963 59.4007ZM390.741 44.6834L389.581 41.9168L390.741 44.6834ZM259.156 60.101L259.182 63.1009L259.156 60.101ZM197.719 318.856L197.745 321.856L197.719 318.856ZM326.638 243.806L327.867 246.543L326.638 243.806ZM330.893 240.18L333.4 241.829L330.893 240.18ZM437.963 77.4007L440.469 79.0493L437.963 77.4007ZM425.741 62.6834L424.581 59.9168L425.741 62.6834ZM140.953 355.364L138.406 353.778L140.953 355.364ZM153.54 369.772L154.77 372.508L153.54 369.772ZM69.9525 305.364L72.499 306.95L69.9525 305.364ZM78.3757 97.9495L75.3758 97.9756L78.3757 97.9495ZM32.9525 288.364L35.4991 289.95L32.9525 288.364ZM45.5399 302.772L44.3103 300.035L45.5399 302.772ZM111.231 90.3812L112.391 93.1478L111.231 90.3812ZM106.609 94.3167L104.063 92.7308L106.609 94.3167ZM58.7192 225.856L58.693 222.857L58.7192 225.856ZM393.281 153.143L393.254 150.144L393.281 153.143ZM362.638 275.806L363.867 278.543L362.638 275.806ZM366.893 272.18L369.4 273.829L366.893 272.18ZM142.231 116.381L141.07 113.615L142.231 116.381ZM137.609 120.317L140.156 121.903L137.609 120.317ZM394.712 317.137L394.738 320.137L394.712 317.137ZM254.638 208.806L253.408 206.07L254.638 208.806ZM258.893 205.18L261.4 206.829L258.893 205.18ZM104.953 323.364L102.406 321.778L104.953 323.364ZM117.54 337.772L118.77 340.508L117.54 337.772ZM1.95249 262.364L4.49902 263.95L1.95249 262.364ZM14.5399 276.772L13.3102 274.036L14.5399 276.772ZM473.963 109.401L476.469 111.049L473.963 109.401ZM334.963 16.4008L332.456 14.7522L334.963 16.4008ZM112.391 93.1478L119.012 90.3712L116.692 84.838L110.07 87.6147L112.391 93.1478ZM81.2812 140.661L109.156 95.9027L104.063 92.7308L76.1881 137.489L81.2812 140.661ZM75.3758 97.9756L75.7347 139.101L81.7345 139.049L81.3756 97.9233L75.3758 97.9756ZM117.826 84.6047L88.2619 84.8627L88.3142 90.8625L117.878 90.6045L117.826 84.6047ZM180.668 58.0092L116.692 84.838L119.012 90.3712L182.988 63.5424L180.668 58.0092ZM117.878 90.6045L212.854 89.7756L212.802 83.7758L117.826 84.6047L117.878 90.6045ZM211.668 84.0091L169.482 101.7L171.802 107.233L213.988 89.5423L211.668 84.0091ZM170.616 101.467L125.262 101.863L125.314 107.862L170.668 107.467L170.616 101.467ZM112.376 114.976L112.729 155.476L118.729 155.424L118.376 114.923L112.376 114.976ZM113.183 153.864L76.8402 212.219L81.9333 215.391L118.276 157.036L113.183 153.864ZM82.3867 213.778L81.7345 139.049L75.7347 139.101L76.3869 213.831L82.3867 213.778ZM76.1881 137.489L45.8402 186.219L50.9333 189.391L81.2812 140.661L76.1881 137.489ZM51.3866 187.779L50.3756 71.9234L44.3758 71.9757L45.3869 187.831L51.3866 187.779ZM57.3142 64.8626L181.854 63.7757L181.802 57.7759L57.2619 58.8628L57.3142 64.8626ZM320.069 44.5036L337.469 18.0494L332.456 14.7522L315.056 41.2064L320.069 44.5036ZM321.581 -1.08312L180.668 58.0092L182.988 63.5424L323.901 4.45005L321.581 -1.08312ZM181.854 63.7757L259.182 63.1009L259.13 57.1011L181.802 57.7759L181.854 63.7757ZM263.165 62.4138L211.668 84.0091L213.988 89.5423L265.485 67.9469L263.165 62.4138ZM212.854 89.7756L264.536 89.3246L264.483 83.3248L212.802 83.7758L212.854 89.7756ZM261.509 86.3509L261.608 97.6041L267.607 97.5517L267.509 86.2985L261.509 86.3509ZM263.447 94.8113L248.668 101.009L250.988 106.542L265.768 100.344L263.447 94.8113ZM249.802 100.776L170.616 101.467L170.668 107.467L249.854 106.776L249.802 100.776ZM169.482 101.7L141.07 113.615L143.391 119.148L171.802 107.233L169.482 101.7ZM135.063 118.731L113.183 153.864L118.276 157.036L140.156 121.903L135.063 118.731ZM112.729 155.476L113.339 225.38L119.339 225.327L118.729 155.424L112.729 155.476ZM116.313 222.354L79.4642 222.675L79.5165 228.675L116.365 228.353L116.313 222.354ZM82.4903 225.649L82.3867 213.778L76.3869 213.831L76.4905 225.701L82.4903 225.649ZM76.8402 212.219L69.4065 224.155L74.4996 227.327L81.9333 215.391L76.8402 212.219ZM71.9269 222.741L58.693 222.857L58.7454 228.856L71.9792 228.741L71.9269 222.741ZM51.6322 215.918L51.3866 187.779L45.3869 187.831L45.6324 215.97L51.6322 215.918ZM45.8402 186.219L-0.594044 260.778L4.49902 263.95L50.9333 189.391L45.8402 186.219ZM15.7696 279.508L51.3631 263.513L48.9037 258.04L13.3102 274.036L15.7696 279.508ZM47.5869 259.191L30.406 286.778L35.4991 289.95L52.6799 262.363L47.5869 259.191ZM46.7696 305.508L82.9117 289.266L80.4523 283.794L44.3103 300.035L46.7696 305.508ZM79.1355 284.944L67.406 303.778L72.499 306.95L84.2285 288.116L79.1355 284.944ZM83.7696 322.508L117.999 307.126L115.54 301.653L81.3102 317.035L83.7696 322.508ZM114.223 302.804L102.406 321.778L107.499 324.95L119.316 305.975L114.223 302.804ZM118.77 340.508L166.495 319.061L164.036 313.588L116.31 335.035L118.77 340.508ZM162.719 314.739L138.406 353.778L143.499 356.95L167.812 317.911L162.719 314.739ZM154.77 372.508L269.439 320.978L266.979 315.505L152.31 367.035L154.77 372.508ZM268.235 321.241L394.738 320.137L394.686 314.137L268.183 315.241L268.235 321.241ZM407.624 307.024L406.83 215.999L400.83 216.051L401.624 307.076L407.624 307.024ZM406.336 217.674L476.469 111.049L471.456 107.752L401.323 214.377L406.336 217.674ZM460.581 91.9168L412.048 112.269L414.368 117.802L462.901 97.4499L460.581 91.9168ZM415.714 116.684L440.469 79.0493L435.456 75.7521L410.702 113.387L415.714 116.684ZM424.581 59.9168L390.145 74.3576L392.465 79.8907L426.901 65.4499L424.581 59.9168ZM393.811 78.7728L405.469 61.0493L400.456 57.7521L388.799 75.4756L393.811 78.7728ZM389.581 41.9168L353.291 57.1349L355.612 62.668L391.901 47.4499L389.581 41.9168ZM356.958 61.55L368.469 44.0493L363.456 40.7521L351.945 58.2528L356.958 61.55ZM352.581 24.9168L316.402 40.0884L318.722 45.6216L354.901 30.4499L352.581 24.9168ZM264.536 89.3246L289.137 89.1099L289.085 83.1101L264.483 83.3248L264.536 89.3246ZM261.325 65.2065L261.509 86.3509L267.509 86.2985L267.325 65.1542L261.325 65.2065ZM316.402 40.0884L263.165 62.4138L265.485 67.9469L318.722 45.6216L316.402 40.0884ZM291.617 87.7586L320.069 44.5036L315.056 41.2064L286.605 84.4614L291.617 87.7586ZM291.988 83.0848L289.085 83.1101L289.137 89.1099L292.041 89.0846L291.988 83.0848ZM286.605 84.4614L285.522 86.1078L290.535 89.405L291.617 87.7586L286.605 84.4614ZM286.868 84.9898L263.447 94.8113L265.768 100.344L289.188 90.523L286.868 84.9898ZM261.608 97.6041L261.661 103.672L267.66 103.62L267.607 97.5517L261.608 97.6041ZM264.634 100.646L249.802 100.776L249.854 106.776L264.687 106.646L264.634 100.646ZM248.668 101.009L204.089 119.704L206.409 125.237L250.988 106.542L248.668 101.009ZM160.314 125.862L205.275 125.47L205.223 119.47L160.262 119.863L160.314 125.862ZM153.748 175.604L153.376 132.923L147.376 132.976L147.748 175.657L153.748 175.604ZM148.202 174.045L117.254 223.737L122.347 226.909L153.295 177.216L148.202 174.045ZM119.774 222.323L116.313 222.354L116.365 228.353L119.827 228.323L119.774 222.323ZM113.339 225.38L113.387 230.831L119.387 230.778L119.339 225.327L113.339 225.38ZM113.84 229.219L113.668 229.495L118.761 232.667L118.933 232.391L113.84 229.219ZM114.985 228.344L78.4511 244.762L80.9105 250.235L117.445 233.817L114.985 228.344ZM76.4905 225.701L76.6809 247.525L82.6807 247.472L82.4903 225.649L76.4905 225.701ZM71.9792 228.741L79.5165 228.675L79.4642 222.675L71.9269 222.741L71.9792 228.741ZM52.6799 262.363L74.4996 227.327L69.4065 224.155L47.5869 259.191L52.6799 262.363ZM78.4511 244.762L48.9037 258.04L51.3631 263.513L80.9105 250.235L78.4511 244.762ZM84.1908 254.905L103.376 254.737L103.324 248.737L84.1385 248.905L84.1908 254.905ZM100.804 250.151L79.1355 284.944L84.2285 288.116L105.897 253.323L100.804 250.151ZM82.9117 289.266L122.127 271.643L119.668 266.171L80.4523 283.794L82.9117 289.266ZM120.924 271.907L138.992 271.749L138.939 265.75L120.872 265.907L120.924 271.907ZM136.419 267.163L114.223 302.804L119.316 305.975L141.512 270.335L136.419 267.163ZM117.999 307.126L156.898 289.645L154.438 284.173L115.54 301.653L117.999 307.126ZM183.711 283.664L155.642 283.909L155.694 289.909L183.764 289.664L183.711 283.664ZM181.191 285.078L162.719 314.739L167.812 317.911L186.284 288.25L181.191 285.078ZM166.495 319.061L188.839 309.02L186.379 303.547L164.036 313.588L166.495 319.061ZM184.609 306.31L184.632 308.97L190.632 308.918L190.609 306.258L184.609 306.31ZM197.745 321.856L268.235 321.241L268.183 315.241L197.693 315.856L197.745 321.856ZM269.439 320.978L342.77 288.023L340.311 282.551L266.979 315.505L269.439 320.978ZM358.686 282.137L341.514 282.287L341.567 288.287L358.738 288.137L358.686 282.137ZM365.577 269.647L365.624 275.076L371.624 275.024L371.577 269.595L365.577 269.647ZM371.083 271.27L406.336 217.674L401.323 214.377L366.07 267.972L371.083 271.27ZM406.83 215.999L406.367 163.03L400.368 163.082L400.83 216.051L406.83 215.999ZM393.254 150.144L388.087 150.189L388.139 156.188L393.307 156.143L393.254 150.144ZM390.619 154.837L415.714 116.684L410.702 113.387L385.606 151.54L390.619 154.837ZM412.048 112.269L366.235 131.481L368.555 137.014L414.368 117.802L412.048 112.269ZM364.323 125.982L364.395 134.274L370.395 134.221L370.323 125.93L364.323 125.982ZM364.887 122.748L393.811 78.7728L388.799 75.4756L359.874 119.45L364.887 122.748ZM390.145 74.3576L328.247 100.315L330.568 105.848L392.465 79.8907L390.145 74.3576ZM329.381 100.081L326.004 100.111L326.057 106.111L329.434 106.081L329.381 100.081ZM328.537 104.759L356.958 61.55L351.945 58.2528L323.524 101.462L328.537 104.759ZM353.291 57.1349L290.854 83.3181L293.175 88.8513L355.612 62.668L353.291 57.1349ZM298.431 103.352L298.309 89.2956L292.309 89.348L292.431 103.404L298.431 103.352ZM290.854 83.3181L286.868 84.9898L289.188 90.523L293.175 88.8513L290.854 83.3181ZM285.522 86.1078L275.145 101.884L280.157 105.182L290.535 89.405L285.522 86.1078ZM277.625 100.533L264.634 100.646L264.687 106.646L277.677 106.533L277.625 100.533ZM261.661 103.672L261.82 121.977L267.82 121.924L267.66 103.62L261.661 103.672ZM205.275 125.47L264.846 124.95L264.794 118.95L205.223 119.47L205.275 125.47ZM204.089 119.704L178.07 130.615L180.391 136.148L206.409 125.237L204.089 119.704ZM172.063 135.731L148.202 174.045L153.295 177.216L177.156 138.903L172.063 135.731ZM154.095 215.38L153.748 175.604L147.748 175.657L148.095 215.432L154.095 215.38ZM149.866 212.669L127.979 222.505L130.439 227.978L152.325 218.142L149.866 212.669ZM129.183 222.241L119.774 222.323L119.827 228.323L129.235 228.241L129.183 222.241ZM117.254 223.737L113.84 229.219L118.933 232.391L122.347 226.909L117.254 223.737ZM113.387 230.831L113.389 231.029L119.388 230.976L119.387 230.778L113.387 230.831ZM115.159 228.266L114.985 228.344L117.445 233.817L117.618 233.739L115.159 228.266ZM113.668 229.495L100.804 250.151L105.897 253.323L118.761 232.667L113.668 229.495ZM103.376 254.737L116.595 254.622L116.542 248.622L103.324 248.737L103.376 254.737ZM113.569 251.648L113.683 264.792L119.683 264.739L119.568 251.596L113.569 251.648ZM122.127 271.643L147.081 260.43L144.621 254.957L119.668 266.171L122.127 271.643ZM143.304 256.108L136.419 267.163L141.512 270.335L148.398 259.279L143.304 256.108ZM138.992 271.749L151.586 271.639L151.534 265.64L138.939 265.75L138.992 271.749ZM154.685 282.969L154.56 268.613L148.56 268.666L148.685 283.021L154.685 282.969ZM156.898 289.645L188.546 275.423L186.086 269.951L154.438 284.173L156.898 289.645ZM184.316 272.713L184.387 280.831L190.387 280.778L190.316 272.661L184.316 272.713ZM184.84 279.219L181.191 285.078L186.284 288.25L189.933 282.391L184.84 279.219ZM187.411 283.632L183.711 283.664L183.764 289.664L187.464 289.632L187.411 283.632ZM184.438 286.658L184.609 306.31L190.609 306.258L190.438 286.606L184.438 286.658ZM188.839 309.02L233.439 288.978L230.979 283.505L186.379 303.547L188.839 309.02ZM341.514 282.287L232.183 283.241L232.235 289.241L341.567 288.287L341.514 282.287ZM342.77 288.023L363.867 278.543L361.408 273.07L340.311 282.551L342.77 288.023ZM369.4 273.829L371.083 271.27L366.07 267.972L364.387 270.532L369.4 273.829ZM364.83 184.051L365.577 269.647L371.577 269.595L370.83 183.999L364.83 184.051ZM370.336 185.674L390.619 154.837L385.606 151.54L365.323 182.377L370.336 185.674ZM388.087 150.189L367.536 150.368L367.588 156.368L388.139 156.188L388.087 150.189ZM364.395 134.274L364.562 153.394L370.562 153.342L370.395 134.221L364.395 134.274ZM366.235 131.481L347.367 139.393L349.687 144.927L368.555 137.014L366.235 131.481ZM351.034 143.809L364.887 122.748L359.874 119.45L346.021 140.511L351.034 143.809ZM332.466 124.36L362.407 124.099L362.354 118.099L332.414 118.36L332.466 124.36ZM335.44 121.334L335.305 105.903L329.305 105.955L329.44 121.386L335.44 121.334ZM328.247 100.315L323.611 102.259L325.931 107.792L330.568 105.848L328.247 100.315ZM327.277 106.674L328.537 104.759L323.524 101.462L322.264 103.377L327.277 106.674ZM326.004 100.111L295.405 100.378L295.458 106.378L326.057 106.111L326.004 100.111ZM298.553 117.252L298.431 103.352L292.431 103.404L292.553 117.305L298.553 117.252ZM295.405 100.378L277.625 100.533L277.677 106.533L295.458 106.378L295.405 100.378ZM275.145 101.884L263.035 120.295L268.047 123.593L280.157 105.182L275.145 101.884ZM264.846 124.95L265.567 124.944L265.515 118.944L264.794 118.95L264.846 124.95ZM261.82 121.977L261.83 123.052L267.83 122.999L267.82 121.924L261.82 121.977ZM262.323 121.377L255.841 131.232L260.854 134.529L267.336 124.674L262.323 121.377ZM257.187 130.114L212.447 148.876L214.768 154.409L259.508 135.647L257.187 130.114ZM209.94 151.743L196.262 151.863L196.314 157.862L209.993 157.743L209.94 151.743ZM183.376 164.976L183.614 192.267L189.614 192.214L189.376 164.923L183.376 164.976ZM184.067 190.655L177.837 200.658L182.93 203.83L189.16 193.826L184.067 190.655ZM179.154 199.508L149.866 212.669L152.325 218.142L181.614 204.98L179.154 199.508ZM154.179 225.023L154.095 215.38L148.095 215.432L148.18 225.076L154.179 225.023ZM151.153 222.05L129.183 222.241L129.235 228.241L151.206 228.049L151.153 222.05ZM127.979 222.505L115.159 228.266L117.618 233.739L130.439 227.978L127.979 222.505ZM113.389 231.029L113.569 251.648L119.568 251.596L119.388 230.976L113.389 231.029ZM116.595 254.622L149.839 254.332L149.787 248.332L116.542 248.622L116.595 254.622ZM147.266 249.746L143.304 256.108L148.398 259.279L152.359 252.918L147.266 249.746ZM147.081 260.43L152.672 257.917L150.213 252.444L144.621 254.957L147.081 260.43ZM154.56 268.613L154.442 255.155L148.443 255.207L148.56 268.666L154.56 268.613ZM151.586 271.639L187.304 271.328L187.252 265.328L151.534 265.64L151.586 271.639ZM184.278 268.354L184.316 272.713L190.316 272.661L190.278 268.302L184.278 268.354ZM188.546 275.423L195.664 272.224L193.205 266.752L186.086 269.951L188.546 275.423ZM191.888 267.902L184.84 279.219L189.933 282.391L196.981 271.074L191.888 267.902ZM184.387 280.831L184.438 286.658L190.438 286.606L190.387 280.778L184.387 280.831ZM232.183 283.241L187.411 283.632L187.464 289.632L232.235 289.241L232.183 283.241ZM233.439 288.978L274.98 270.31L272.52 264.837L230.979 283.505L233.439 288.978ZM273.776 270.573L323.738 270.137L323.686 264.137L273.724 264.573L273.776 270.573ZM336.624 257.024L336.443 236.278L330.443 236.33L330.624 257.076L336.624 257.024ZM335.949 237.953L370.336 185.674L365.323 182.377L330.937 234.655L335.949 237.953ZM364.562 153.394L364.83 184.051L370.83 183.999L370.562 153.342L364.562 153.394ZM367.536 150.368L340.977 150.6L341.029 156.6L367.588 156.368L367.536 150.368ZM343.509 155.248L351.034 143.809L346.021 140.511L338.496 151.951L343.509 155.248ZM347.367 139.393L331.519 146.039L333.84 151.572L349.687 144.927L347.367 139.393ZM335.679 148.78L335.44 121.334L329.44 121.386L329.68 148.832L335.679 148.78ZM313.946 124.522L332.466 124.36L332.414 118.36L313.894 118.522L313.946 124.522ZM316.427 123.17L327.277 106.674L322.264 103.377L311.414 119.873L316.427 123.17ZM323.611 102.259L294.392 114.512L296.713 120.045L325.931 107.792L323.611 102.259ZM295.617 124.682L313.946 124.522L313.894 118.522L295.565 118.682L295.617 124.682ZM298.336 150.674L316.427 123.17L311.414 119.873L293.323 147.377L298.336 150.674ZM298.83 148.999L298.591 121.656L292.591 121.708L292.83 149.051L298.83 148.999ZM298.873 153.967L298.83 148.999L292.83 149.051L292.873 154.02L298.873 153.967ZM295.049 155.671L298.336 150.674L293.323 147.377L290.036 152.374L295.049 155.671ZM265.128 157.262L292.569 157.022L292.517 151.023L265.076 151.262L265.128 157.262ZM261.892 130.162L262.102 154.288L268.102 154.236L267.892 130.11L261.892 130.162ZM283.668 119.009L263.732 127.37L266.052 132.903L285.988 124.542L283.668 119.009ZM284.854 124.776L295.617 124.682L295.565 118.682L284.802 118.776L284.854 124.776ZM298.591 121.656L298.553 117.252L292.553 117.305L292.591 121.708L298.591 121.656ZM294.392 114.512L283.668 119.009L285.988 124.542L296.713 120.045L294.392 114.512ZM265.567 124.944L284.854 124.776L284.802 118.776L265.515 118.944L265.567 124.944ZM263.034 120.295L262.323 121.377L267.336 124.674L268.047 123.593L263.034 120.295ZM261.83 123.052L261.892 130.162L267.892 130.11L267.83 122.999L261.83 123.052ZM263.732 127.37L257.187 130.114L259.508 135.647L266.052 132.903L263.732 127.37ZM255.841 131.232L241.657 152.796L246.67 156.093L260.854 134.529L255.841 131.232ZM244.137 151.445L209.94 151.743L209.993 157.743L244.19 157.445L244.137 151.445ZM207.42 153.157L184.067 190.655L189.16 193.826L212.513 156.329L207.42 153.157ZM183.614 192.267L183.677 199.442L189.676 199.39L189.614 192.214L183.614 192.267ZM181.614 204.98L187.906 202.153L185.447 196.68L179.154 199.508L181.614 204.98ZM168.81 226.504L182.93 203.83L177.837 200.658L163.716 223.332L168.81 226.504ZM166.237 221.918L151.153 222.05L151.206 228.049L166.289 227.918L166.237 221.918ZM154.387 248.778L154.179 225.023L148.18 225.076L148.387 248.831L154.387 248.778ZM152.359 252.918L153.933 250.391L148.84 247.219L147.266 249.746L152.359 252.918ZM151.383 248.318L149.787 248.332L149.839 254.332L151.435 254.318L151.383 248.318ZM154.442 255.155L154.409 251.292L148.409 251.344L148.443 255.207L154.442 255.155ZM152.672 257.917L161.439 253.978L158.979 248.505L150.213 252.444L152.672 257.917ZM160.235 254.241L187.153 254.006L187.101 248.006L160.183 248.241L160.235 254.241ZM184.127 251.032L184.278 268.354L190.278 268.302L190.127 250.98L184.127 251.032ZM187.304 271.328L195.226 271.259L195.174 265.259L187.252 265.328L187.304 271.328ZM192.654 266.673L191.888 267.902L196.981 271.074L197.747 269.845L192.654 266.673ZM195.664 272.224L198.439 270.978L195.979 265.505L193.205 266.752L195.664 272.224ZM197.235 271.241L273.776 270.573L273.724 264.573L197.183 265.241L197.235 271.241ZM274.98 270.31L327.867 246.543L325.408 241.07L272.52 264.837L274.98 270.31ZM333.4 241.829L335.949 237.953L330.937 234.655L328.387 238.532L333.4 241.829ZM336.443 236.278L335.83 165.999L329.83 166.051L330.443 236.33L336.443 236.278ZM335.336 167.674L343.509 155.248L338.496 151.951L330.323 164.377L335.336 167.674ZM340.977 150.6L332.696 150.672L332.748 156.672L341.029 156.6L340.977 150.6ZM335.722 153.646L335.679 148.78L329.68 148.832L329.722 153.698L335.722 153.646ZM331.519 146.039L319.668 151.009L321.988 156.542L333.84 151.572L331.519 146.039ZM320.802 150.776L295.847 150.994L295.899 156.993L320.854 156.776L320.802 150.776ZM298.962 164.177L298.873 153.967L292.873 154.02L292.962 164.23L298.962 164.177ZM295.847 150.994L292.517 151.023L292.569 157.022L295.899 156.993L295.847 150.994ZM290.036 152.374L279.487 168.413L284.499 171.71L295.049 155.671L290.036 152.374ZM280.833 167.295L264.141 174.295L266.461 179.828L283.153 172.828L280.833 167.295ZM262.102 154.288L262.301 177.087L268.301 177.035L268.102 154.236L262.102 154.288ZM244.19 157.445L265.128 157.262L265.076 151.262L244.137 151.445L244.19 157.445ZM230.4 180.829L246.67 156.093L241.657 152.796L225.387 177.532L230.4 180.829ZM187.906 202.153L224.867 185.543L222.408 180.07L185.447 196.68L187.906 202.153ZM183.677 199.442L183.898 224.764L189.897 224.712L189.676 199.39L183.677 199.442ZM186.871 221.738L166.237 221.918L166.289 227.918L186.924 227.738L186.871 221.738ZM153.933 250.391L168.81 226.504L163.716 223.332L148.84 247.219L153.933 250.391ZM154.409 251.292L154.387 248.778L148.387 248.831L148.409 251.344L154.409 251.292ZM160.183 248.241L151.383 248.318L151.435 254.318L160.235 254.241L160.183 248.241ZM185.794 236.455L158.979 248.505L161.439 253.978L188.253 241.927L185.794 236.455ZM184.024 239.217L184.127 251.032L190.127 250.98L190.024 239.165L184.024 239.217ZM187.153 254.006L206.074 253.841L206.021 247.841L187.101 248.006L187.153 254.006ZM203.501 249.255L192.654 266.673L197.747 269.845L208.594 252.427L203.501 249.255ZM195.226 271.259L197.235 271.241L197.183 265.241L195.174 265.259L195.226 271.259ZM198.439 270.978L237.75 253.312L235.291 247.839L195.979 265.505L198.439 270.978ZM236.547 253.575L286.738 253.137L286.686 247.137L236.494 247.575L236.547 253.575ZM299.624 240.024L299.46 221.292L293.461 221.344L293.624 240.076L299.624 240.024ZM298.967 222.966L335.336 167.674L330.323 164.377L293.954 219.669L298.967 222.966ZM335.83 165.999L335.722 153.646L329.722 153.698L329.83 166.051L335.83 165.999ZM332.696 150.672L320.802 150.776L320.854 156.776L332.748 156.672L332.696 150.672ZM319.668 151.009L294.802 161.437L297.122 166.97L321.988 156.542L319.668 151.009ZM292.962 164.23L293.461 221.344L299.46 221.292L298.962 164.177L292.962 164.23ZM293.954 219.669L293.387 220.532L298.4 223.829L298.967 222.966L293.954 219.669ZM290.408 223.07L235.291 247.839L237.75 253.312L292.867 228.543L290.408 223.07ZM236.494 247.575L206.021 247.841L206.074 253.841L236.547 253.575L236.494 247.575ZM208.594 252.427L225.044 226.013L219.951 222.841L203.501 249.255L208.594 252.427ZM222.524 227.427L255.738 227.137L255.686 221.137L222.471 221.427L222.524 227.427ZM268.624 214.024L268.459 195.171L262.46 195.224L262.624 214.077L268.624 214.024ZM267.966 196.846L284.499 171.71L279.487 168.413L262.953 193.549L267.966 196.846ZM283.153 172.828L297.122 166.97L294.802 161.437L280.833 167.295L283.153 172.828ZM220.97 221.206L219.951 222.841L225.044 226.013L226.063 224.378L220.97 221.206ZM222.471 221.427L219.799 221.451L219.852 227.45L222.524 227.427L222.471 221.427ZM222.286 220.056L218.596 221.714L221.055 227.187L224.746 225.528L222.286 220.056ZM253.408 206.07L222.286 220.056L224.746 225.528L255.867 211.543L253.408 206.07ZM262.953 193.549L256.387 203.532L261.4 206.829L267.966 196.846L262.953 193.549ZM262.301 177.087L262.46 195.224L268.459 195.171L268.301 177.035L262.301 177.087ZM264.141 174.295L249.07 180.615L251.391 186.148L266.461 179.828L264.141 174.295ZM243.063 185.731L220.97 221.206L226.063 224.378L248.156 188.903L243.063 185.731ZM218.596 221.714L185.794 236.455L188.253 241.927L221.055 227.187L218.596 221.714ZM183.898 224.764L184.024 239.217L190.024 239.165L189.897 224.712L183.898 224.764ZM219.799 221.451L186.871 221.738L186.924 227.738L219.852 227.45L219.799 221.451ZM249.07 180.615C246.586 181.656 244.487 183.444 243.063 185.731L248.156 188.903C248.923 187.671 250.053 186.709 251.391 186.148L249.07 180.615ZM293.387 220.532C292.655 221.644 291.622 222.524 290.408 223.07L292.867 228.543C295.122 227.529 297.041 225.894 298.4 223.829L293.387 220.532ZM225.387 177.532C224.655 178.644 223.622 179.524 222.408 180.07L224.867 185.543C227.122 184.53 229.041 182.894 230.4 180.829L225.387 177.532ZM323.738 270.137C330.917 270.074 336.687 264.204 336.624 257.024L330.624 257.076C330.658 260.942 327.551 264.104 323.686 264.137L323.738 270.137ZM196.262 151.863C189.082 151.925 183.313 157.796 183.376 164.976L189.376 164.923C189.342 161.057 192.448 157.896 196.314 157.862L196.262 151.863ZM212.447 148.876C210.368 149.748 208.612 151.244 207.42 153.157L212.513 156.329C213.048 155.471 213.835 154.8 214.768 154.409L212.447 148.876ZM148.685 283.021C148.719 286.859 151.857 289.942 155.694 289.909L155.642 283.909C155.118 283.914 154.69 283.493 154.685 282.969L148.685 283.021ZM178.07 130.615C175.586 131.656 173.487 133.444 172.063 135.731L177.156 138.903C177.923 137.671 179.053 136.709 180.391 136.148L178.07 130.615ZM370.323 125.93C370.285 121.567 366.717 118.061 362.354 118.099L362.407 124.099C363.456 124.09 364.314 124.933 364.323 125.982L370.323 125.93ZM255.738 227.137C262.917 227.075 268.687 221.204 268.624 214.024L262.624 214.077C262.658 217.942 259.551 221.104 255.686 221.137L255.738 227.137ZM125.262 101.863C118.082 101.925 112.313 107.796 112.376 114.976L118.376 114.923C118.342 111.057 121.448 107.896 125.314 107.862L125.262 101.863ZM76.6809 247.525C76.7168 251.636 80.0791 254.941 84.1908 254.905L84.1385 248.905C83.3403 248.912 82.6877 248.27 82.6807 247.472L76.6809 247.525ZM160.262 119.863C153.082 119.925 147.313 125.796 147.376 132.976L153.376 132.923C153.342 129.057 156.448 125.896 160.314 125.862L160.262 119.863ZM358.738 288.137C365.917 288.074 371.687 282.204 371.624 275.024L365.624 275.076C365.658 278.942 362.551 282.104 358.686 282.137L358.738 288.137ZM405.469 61.0493C412.523 50.3251 401.418 36.9527 389.581 41.9168L391.901 47.4499C398.275 44.777 404.255 51.9775 400.456 57.7521L405.469 61.0493ZM259.182 63.1009C260.355 63.0906 261.315 64.0334 261.325 65.2065L267.325 65.1542C267.286 60.6674 263.617 57.062 259.13 57.1011L259.182 63.1009ZM184.632 308.97C184.695 316.15 190.566 321.919 197.745 321.856L197.693 315.856C193.827 315.89 190.666 312.784 190.632 308.918L184.632 308.97ZM327.867 246.543C330.122 245.529 332.041 243.894 333.4 241.829L328.387 238.532C327.655 239.644 326.622 240.524 325.408 241.07L327.867 246.543ZM440.469 79.0493C447.523 68.3251 436.418 54.9527 424.581 59.9168L426.901 65.4499C433.275 62.777 439.255 69.9775 435.456 75.7521L440.469 79.0493ZM138.406 353.778C131.619 364.677 143.059 377.771 154.77 372.508L152.31 367.035C146.004 369.869 139.844 362.818 143.499 356.95L138.406 353.778ZM67.406 303.778C60.6186 314.677 72.0587 327.771 83.7696 322.508L81.3102 317.035C75.0043 319.869 68.8443 312.818 72.499 306.95L67.406 303.778ZM286.738 253.137C293.917 253.074 299.687 247.204 299.624 240.024L293.624 240.076C293.658 243.942 290.551 247.104 286.686 247.137L286.738 253.137ZM81.3756 97.9233C81.3419 94.0574 84.4484 90.8962 88.3142 90.8625L88.2619 84.8627C81.0825 84.9253 75.3132 90.7962 75.3758 97.9756L81.3756 97.9233ZM298.309 89.2956C298.278 85.8353 295.449 83.0546 291.988 83.0848L292.041 89.0846C292.187 89.0833 292.308 89.2012 292.309 89.348L298.309 89.2956ZM30.406 286.778C23.6187 297.676 35.0586 310.771 46.7696 305.508L44.3103 300.035C38.0043 302.869 31.8443 295.818 35.4991 289.95L30.406 286.778ZM335.305 105.903C335.277 102.659 332.625 100.053 329.381 100.081L329.434 106.081C329.363 106.082 329.306 106.025 329.305 105.955L335.305 105.903ZM110.07 87.6147C107.586 88.6564 105.487 90.4442 104.063 92.7308L109.156 95.9027C109.923 94.6714 111.053 93.7088 112.391 93.1478L110.07 87.6147ZM58.693 222.857C54.8272 222.89 51.6659 219.784 51.6322 215.918L45.6324 215.97C45.6951 223.15 51.566 228.919 58.7454 228.856L58.693 222.857ZM406.367 163.03C406.305 155.85 400.434 150.081 393.254 150.144L393.307 156.143C397.173 156.11 400.334 159.216 400.368 163.082L406.367 163.03ZM363.867 278.543C366.122 277.529 368.041 275.894 369.4 273.829L364.387 270.532C363.655 271.644 362.622 272.524 361.408 273.07L363.867 278.543ZM368.469 44.0493C375.523 33.3251 364.418 19.9527 352.581 24.9168L354.901 30.4499C361.275 27.777 367.255 34.9775 363.456 40.7521L368.469 44.0493ZM141.07 113.615C138.586 114.656 136.487 116.444 135.063 118.731L140.156 121.903C140.923 120.671 142.053 119.709 143.391 119.148L141.07 113.615ZM113.683 264.792C113.718 268.756 116.96 271.942 120.924 271.907L120.872 265.907C120.221 265.913 119.689 265.39 119.683 264.739L113.683 264.792ZM394.738 320.137C401.917 320.074 407.687 314.204 407.624 307.024L401.624 307.076C401.658 310.942 398.551 314.104 394.686 314.137L394.738 320.137ZM255.867 211.543C258.122 210.529 260.041 208.894 261.4 206.829L256.387 203.532C255.655 204.644 254.622 205.524 253.408 206.07L255.867 211.543ZM50.3756 71.9234C50.3419 68.0575 53.4484 64.8963 57.3142 64.8626L57.2619 58.8628C50.0824 58.9254 44.3132 64.7963 44.3758 71.9757L50.3756 71.9234ZM102.406 321.778C95.6187 332.677 107.059 345.771 118.77 340.508L116.31 335.035C110.004 337.869 103.844 330.818 107.499 324.95L102.406 321.778ZM-0.594044 260.778C-7.38139 271.677 4.05864 284.771 15.7696 279.508L13.3102 274.036C7.00429 276.869 0.844301 269.818 4.49902 263.95L-0.594044 260.778ZM476.469 111.049C483.523 100.325 472.418 86.9527 460.581 91.9168L462.901 97.4499C469.275 94.777 475.255 101.978 471.456 107.752L476.469 111.049ZM337.469 18.0494C344.523 7.32526 333.418 -6.04718 321.581 -1.08312L323.901 4.45005C330.275 1.7771 336.255 8.97762 332.456 14.7522L337.469 18.0494Z" fill="#389241" mask="url(#path-1-inside-1_4_6)"/>
</svg>
